<svg xmlns="http://www.w3.org/2000/svg" viewBox="0 0 1024 500">
  <defs>
    <linearGradient id="bg" x1="0" y1="0" x2="1" y2="1"><stop offset="0" stop-color="#0D1B2A"/><stop offset=".6" stop-color="#0B4650"/><stop offset="1" stop-color="#00A8A4"/></linearGradient>
    <linearGradient id="g" x1="0" y1="0" x2="1" y2="1"><stop offset="0" stop-color="#00D0C8"/><stop offset=".55" stop-color="#0096D6"/><stop offset="1" stop-color="#1E2A39"/></linearGradient>
  </defs>
  <rect width="1024" height="500" fill="url(#bg)"/>
  <circle cx="870" cy="100" r="210" fill="#fff" opacity=".05"/><circle cx="880" cy="430" r="300" fill="#fff" opacity=".04"/>
  <g transform="translate(90 88) scale(.38)">
    <path d="M0 0h190l172 236L534 0h190L458 362l266 362H534L362 488 190 724H0l266-362L0 0Z" fill="#fff"/>
    <path d="M362 236 534 0h190L458 362l-96-126Z" fill="url(#g)"/>
    <g fill="none" stroke="#00B7D1" stroke-width="18" stroke-linecap="round"><path d="M-38 80h-48v568h48M-86 176h64M-86 272h48M-86 364h64M-86 456h48M-86 552h64"/><path d="M762 80h48v568h-48M810 176h-64M810 272h-48M810 364h-64M810 456h-48M810 552h-64"/></g>
  </g>
  <text x="410" y="188" fill="#fff" font-family="Arial,sans-serif" font-size="92" font-weight="900" letter-spacing="-5">RGN<tspan fill="#21D0C9">FIX</tspan></text>
  <text x="412" y="254" fill="#D8ECEE" font-family="Arial,sans-serif" font-size="29" font-weight="600">Doğru ölçü. Doğru ürün. Kolay sipariş.</text>
  <g font-family="Arial,sans-serif" font-size="23" font-weight="600" fill="#fff">
    <rect x="410" y="302" width="165" height="52" rx="26" fill="#fff" opacity=".12"/><text x="492" y="336" text-anchor="middle">Ölçü Asistanı</text>
    <rect x="590" y="302" width="148" height="52" rx="26" fill="#fff" opacity=".12"/><text x="664" y="336" text-anchor="middle">Anlık Fiyat</text>
    <rect x="753" y="302" width="170" height="52" rx="26" fill="#fff" opacity=".12"/><text x="838" y="336" text-anchor="middle">Sipariş Takibi</text>
  </g>
</svg>
