<svg xmlns="http://www.w3.org/2000/svg" viewBox="0 0 2732 2732">
  <defs>
    <linearGradient id="bg" x1="0" y1="0" x2="1" y2="1"><stop offset="0" stop-color="#0D1B2A"/><stop offset=".65" stop-color="#103A46"/><stop offset="1" stop-color="#086C73"/></linearGradient>
    <linearGradient id="g" x1="0" y1="0" x2="1" y2="1"><stop offset="0" stop-color="#00D0C8"/><stop offset=".55" stop-color="#0096D6"/><stop offset="1" stop-color="#1E2A39"/></linearGradient>
  </defs>
  <rect width="2732" height="2732" fill="url(#bg)"/>
  <circle cx="1366" cy="1220" r="410" fill="#fff" opacity=".05"/>
  <g transform="translate(926 780) scale(.86)">
    <path d="M0 0h190l172 236L534 0h190L458 362l266 362H534L362 488 190 724H0l266-362L0 0Z" fill="#fff"/>
    <path d="M362 236 534 0h190L458 362l-96-126Z" fill="url(#g)"/>
    <g fill="none" stroke="#00B7D1" stroke-width="18" stroke-linecap="round"><path d="M-38 80h-48v568h48M-86 176h64M-86 272h48M-86 364h64M-86 456h48M-86 552h64"/><path d="M762 80h48v568h-48M810 176h-64M810 272h-48M810 364h-64M810 456h-48M810 552h-64"/></g>
  </g>
  <text x="1366" y="1775" text-anchor="middle" fill="#fff" font-family="Arial,sans-serif" font-size="215" font-weight="900" letter-spacing="-10">RGN<tspan fill="#21B8B8">FIX</tspan></text>
  <text x="1366" y="1905" text-anchor="middle" fill="#B9D3D6" font-family="Arial,sans-serif" font-size="52" font-weight="600" letter-spacing="12">AKILLI ÖLÇÜ VE SİPARİŞ</text>
</svg>
