<svg xmlns="http://www.w3.org/2000/svg" viewBox="0 0 800 800" role="img" aria-labelledby="t d"><title id="t">Antrasit kapı plise sineklik</title><desc id="d">Antrasit sürgülü kapı üzerinde pileli fiber tül plise sineklik</desc><defs><linearGradient id="w" x1="0" y1="0" x2="1" y2="1"><stop stop-color="#faf8f4"/><stop offset="1" stop-color="#e6e0d8"/></linearGradient><pattern id="mesh" width="12" height="12" patternUnits="userSpaceOnUse"><path d="M0 0V12M6 0V12M12 0V12" stroke="#111827" stroke-width="2" opacity=".68"/><path d="M0 6H12" stroke="#111827" stroke-width=".6" opacity=".4"/></pattern></defs><rect width="800" height="800" fill="url(#w)"/><rect x="145" y="45" width="510" height="690" fill="#252a30"/><rect x="175" y="75" width="450" height="630" fill="#d9e5e8"/><rect x="185" y="90" width="205" height="600" fill="#c6d7dc"/><path d="M185 580c90-120 145-170 205-230v340H185z" fill="#8f7359" opacity=".45"/><rect x="410" y="85" width="200" height="610" fill="url(#mesh)"/><g stroke="#020617" stroke-width="3" opacity=".55"><path d="M425 85V695M445 85V695M465 85V695M485 85V695M505 85V695M525 85V695M545 85V695M565 85V695M585 85V695M605 85V695"/></g><rect x="392" y="70" width="22" height="640" fill="#30363d"/><rect y="735" width="800" height="65" fill="#d8d2ca"/><text x="400" y="780" text-anchor="middle" font-family="Arial,sans-serif" font-size="22" fill="#374151">Antrasit Kapı Plise Sineklik</text></svg>