<svg xmlns="http://www.w3.org/2000/svg" viewBox="0 0 800 800" role="img" aria-labelledby="t d"><title id="t">Beyaz kapı akordiyon sineklik</title><desc id="d">Beyaz balkon kapısı üzerinde pileli fiber tül akordiyon sineklik</desc><defs><linearGradient id="w" x1="0" y1="0" x2="1" y2="1"><stop stop-color="#fffdf9"/><stop offset="1" stop-color="#e8e2da"/></linearGradient><pattern id="mesh" width="12" height="12" patternUnits="userSpaceOnUse"><path d="M0 0V12M6 0V12M12 0V12" stroke="#111827" stroke-width="2" opacity=".66"/><path d="M0 6H12" stroke="#111827" stroke-width=".6" opacity=".4"/></pattern></defs><rect width="800" height="800" fill="url(#w)"/><rect x="115" y="50" width="570" height="685" fill="#f8fafc" stroke="#cbd5e1" stroke-width="8"/><rect x="145" y="80" width="510" height="625" fill="#dce9ec"/><rect x="155" y="95" width="235" height="595" fill="#cbdde2"/><path d="M155 580c100-120 155-180 235-250v360H155z" fill="#b99368" opacity=".45"/><rect x="410" y="90" width="230" height="605" fill="url(#mesh)"/><g stroke="#020617" stroke-width="3" opacity=".55"><path d="M425 90V695M445 90V695M465 90V695M485 90V695M505 90V695M525 90V695M545 90V695M565 90V695M585 90V695M605 90V695M625 90V695"/></g><rect x="390" y="75" width="22" height="635" fill="#f8fafc" stroke="#d1d5db"/><rect y="735" width="800" height="65" fill="#ddd6ce"/><text x="400" y="780" text-anchor="middle" font-family="Arial,sans-serif" font-size="22" fill="#374151">Beyaz Kapı Akordiyon Sineklik</text></svg>