<svg xmlns="http://www.w3.org/2000/svg" viewBox="0 0 800 800" role="img" aria-labelledby="t d"><title id="t">Beyaz pencere akordiyon sineklik</title><desc id="d">Beyaz PVC pencere üzerinde pileli fiber tül akordiyon sineklik</desc><defs><linearGradient id="w" x1="0" y1="0" x2="1" y2="1"><stop stop-color="#fffdf9"/><stop offset="1" stop-color="#e6e2da"/></linearGradient><pattern id="mesh" width="12" height="12" patternUnits="userSpaceOnUse"><path d="M0 0V12M6 0V12M12 0V12" stroke="#111827" stroke-width="2" opacity=".68"/><path d="M0 6H12" stroke="#111827" stroke-width=".6" opacity=".4"/></pattern></defs><rect width="800" height="800" fill="url(#w)"/><rect x="115" y="95" width="570" height="610" rx="4" fill="#f8fafc" stroke="#cbd5e1" stroke-width="8"/><rect x="145" y="125" width="510" height="550" fill="#dbe8ee"/><rect x="405" y="140" width="235" height="520" fill="#b9d3dc"/><path d="M430 590c70-150 130-210 200-280v350H405z" fill="#6d8f68" opacity=".55"/><rect x="160" y="140" width="225" height="520" fill="url(#mesh)"/><g stroke="#020617" stroke-width="3" opacity=".55"><path d="M175 140V660M195 140V660M215 140V660M235 140V660M255 140V660M275 140V660M295 140V660M315 140V660M335 140V660M355 140V660M375 140V660"/></g><rect x="385" y="125" width="22" height="550" fill="#f8fafc" stroke="#d1d5db"/><rect x="100" y="705" width="600" height="28" fill="#aaa59d"/><text x="400" y="770" text-anchor="middle" font-family="Arial,sans-serif" font-size="22" fill="#374151">Beyaz Pencere Akordiyon Sineklik</text></svg>