<svg xmlns="http://www.w3.org/2000/svg" viewBox="0 0 800 800" role="img" aria-labelledby="t d"><title id="t">Antrasit pencere plise sineklik</title><desc id="d">Modern antrasit pencere üzerinde pileli fiber tül plise sineklik</desc><defs><linearGradient id="w" x1="0" y1="0" x2="1" y2="1"><stop stop-color="#faf8f4"/><stop offset="1" stop-color="#dedbd5"/></linearGradient><pattern id="mesh" width="12" height="12" patternUnits="userSpaceOnUse"><path d="M0 0V12M6 0V12M12 0V12" stroke="#111827" stroke-width="2" opacity=".65"/><path d="M0 6H12" stroke="#111827" stroke-width=".6" opacity=".4"/></pattern></defs><rect width="800" height="800" fill="url(#w)"/><rect x="115" y="95" width="570" height="610" rx="4" fill="#252a30"/><rect x="145" y="125" width="510" height="550" fill="#dbe8ee"/><rect x="170" y="150" width="225" height="500" fill="#b8ccd4"/><path d="M180 570c80-130 140-190 205-260v340H170z" fill="#708b72" opacity=".55"/><rect x="410" y="140" width="225" height="520" fill="url(#mesh)"/><g stroke="#020617" stroke-width="3" opacity=".55"> <path d="M425 140V660M445 140V660M465 140V660M485 140V660M505 140V660M525 140V660M545 140V660M565 140V660M585 140V660M605 140V660M625 140V660"/></g><rect x="395" y="125" width="22" height="550" fill="#30363d"/><rect x="100" y="705" width="600" height="28" fill="#77736e"/><text x="400" y="770" text-anchor="middle" font-family="Arial,sans-serif" font-size="22" fill="#374151">Antrasit Pencere Plise Sineklik</text></svg>